<?xml version="1.0" encoding="utf-8"?>
<!-- Generator: Adobe Illustrator 16.0.3, SVG Export Plug-In . SVG Version: 6.00 Build 0)  -->
<!DOCTYPE svg PUBLIC "-//W3C//DTD SVG 1.1//EN" "http://www.w3.org/Graphics/SVG/1.1/DTD/svg11.dtd">
<svg version="1.1" id="Layer_2" xmlns="http://www.w3.org/2000/svg" xmlns:xlink="http://www.w3.org/1999/xlink" x="0px" y="0px"
	 width="854.857px" height="305.688px" viewBox="0 0 854.857 305.688" enable-background="new 0 0 854.857 305.688"
	 xml:space="preserve">
<g id="XMLID_353_">
	<path id="XMLID_354_" fill="#231F20" d="M481.849,88.251c-0.781-3.867-4.198-6.779-8.295-6.779c-4.675,0-8.464,3.789-8.464,8.464
		s3.789,8.464,8.464,8.464c4.594,0,8.325-3.663,8.452-8.227h124.103l26.396-26.396h71.213l35.615,35.614h77.523
		c0.506,4.192,4.068,7.442,8.396,7.442c4.675,0,8.464-3.789,8.464-8.464c0-4.674-3.789-8.464-8.464-8.464
		c-4.369,0-7.965,3.313-8.414,7.563h-76.711l-35.614-35.614h-72.806l-26.395,26.396H481.849z"/>
	<path id="XMLID_355_" fill="#231F20" d="M126.415,68.976c-0.478-4.221-4.057-7.503-8.405-7.503c-4.675,0-8.464,3.79-8.464,8.464
		c0,4.675,3.789,8.464,8.464,8.464c4.349,0,7.928-3.281,8.405-7.503h75.139l24.478-24.477h109.546l15.375-15.375h47.411
		c0.478,4.221,4.057,7.503,8.405,7.503c4.675,0,8.464-3.79,8.464-8.464c0-4.675-3.789-8.464-8.464-8.464
		c-4.349,0-7.928,3.281-8.405,7.503h-48.207l-15.375,15.375H225.236l-24.478,24.477H126.415z"/>
	<path id="XMLID_356_" fill="#231F20" d="M809.878,216.601c-4.674,0-8.464,3.789-8.464,8.464c0,1.99,0.692,3.817,1.843,5.263
		l-20.007,20.007H731.8c-0.478-4.222-4.057-7.503-8.405-7.503c-4.675,0-8.464,3.789-8.464,8.464c0,4.674,3.789,8.464,8.464,8.464
		c4.35,0,7.928-3.282,8.405-7.503h52.246l20.569-20.57c1.445,1.15,3.272,1.843,5.263,1.843c4.675,0,8.465-3.789,8.465-8.464
		S814.553,216.601,809.878,216.601z"/>
	<path id="XMLID_357_" fill="#231F20" d="M826.806,198.854c-4.328,0-7.891,3.251-8.396,7.442h-79.076l-35.615,35.614h-71.213
		l-26.396-26.396H481.94c-0.535-4.161-4.081-7.378-8.387-7.378c-4.675,0-8.465,3.789-8.465,8.463c0,4.675,3.79,8.465,8.465,8.465
		c4.392,0,8.001-3.346,8.422-7.628h123.338l26.395,26.396h72.806l35.614-35.614h78.264c0.449,4.251,4.045,7.563,8.414,7.563
		c4.675,0,8.465-3.79,8.465-8.464C835.271,202.643,831.48,198.854,826.806,198.854z"/>
	<path id="XMLID_358_" fill="#231F20" d="M723.395,62.857c4.349,0,7.928-3.282,8.405-7.503h51.45l20.007,20.006
		c-1.15,1.445-1.843,3.272-1.843,5.263c0,4.675,3.79,8.464,8.464,8.464c4.675,0,8.465-3.789,8.465-8.464
		c0-4.674-3.79-8.463-8.465-8.463c-1.99,0-3.817,0.691-5.263,1.842l-20.569-20.569H731.8c-0.478-4.222-4.057-7.503-8.405-7.503
		c-4.675,0-8.464,3.789-8.464,8.464C714.931,59.067,718.72,62.857,723.395,62.857z"/>
	<path id="XMLID_359_" fill="#231F20" d="M565.803,62.857c4.349,0,7.928-3.282,8.405-7.503h37.001
		c0.478,4.221,4.057,7.503,8.405,7.503c4.675,0,8.464-3.79,8.464-8.464c0-4.675-3.789-8.464-8.464-8.464
		c-4.349,0-7.928,3.281-8.405,7.503h-37.001c-0.478-4.222-4.057-7.503-8.405-7.503c-4.675,0-8.464,3.789-8.464,8.464
		C557.339,59.067,561.128,62.857,565.803,62.857z"/>
	<path id="XMLID_360_" fill="#231F20" d="M406.769,267.139c-4.349,0-7.928,3.281-8.405,7.503h-47.411l-15.375-15.374l-109.546-0.001
		l-24.478-24.478h-75.139c-0.478-4.221-4.057-7.503-8.405-7.503c-4.675,0-8.464,3.79-8.464,8.464c0,4.675,3.789,8.464,8.464,8.464
		c4.35,0,7.928-3.281,8.405-7.503h74.344l24.478,24.478l109.545,0.001l15.375,15.374h48.207c0.478,4.222,4.057,7.503,8.405,7.503
		c4.675,0,8.464-3.789,8.464-8.463C415.232,270.929,411.443,267.139,406.769,267.139z"/>
	<path id="XMLID_361_" fill="#231F20" d="M8.464,75.037c4.33,0,7.894-3.252,8.397-7.446h55.557l31.741,31.741h105.477l25.044-25.045
		h157.593l28.828-28.828h114.516l24.859,24.861c-1.348,1.499-2.176,3.477-2.176,5.652c0,4.674,3.789,8.464,8.463,8.464
		c4.675,0,8.465-3.79,8.465-8.464c0-4.675-3.79-8.465-8.465-8.465c-1.805,0-3.475,0.57-4.848,1.533l-25.504-25.503H420.305
		l-28.828,28.827H233.884L208.84,97.41H104.954l-31.74-31.741H16.878c-0.451-4.249-4.045-7.56-8.414-7.56
		C3.79,58.109,0,61.899,0,66.573C0,71.248,3.79,75.037,8.464,75.037z"/>
	<path id="XMLID_362_" fill="#231F20" d="M8.464,16.928c4.35,0,7.928-3.281,8.405-7.503h166.566l15.397,15.397
		c-1.15,1.445-1.843,3.271-1.843,5.263c0,4.674,3.79,8.464,8.464,8.464c4.675,0,8.464-3.79,8.464-8.464
		c0-4.675-3.789-8.464-8.464-8.464c-1.99,0-3.817,0.691-5.263,1.842l-15.96-15.96H16.869C16.392,3.281,12.813,0,8.464,0
		C3.79,0,0,3.789,0,8.464S3.79,16.928,8.464,16.928z"/>
	<path id="XMLID_363_" fill="#231F20" d="M8.464,106.895c4.35,0,7.928-3.281,8.405-7.503H54.07l27.987,27.987h171.12l20.9-20.9
		h463.813l21.621,21.621h37.155c0.478,4.221,4.057,7.503,8.405,7.503c4.675,0,8.465-3.79,8.465-8.464
		c0-4.675-3.79-8.464-8.465-8.464c-4.349,0-7.928,3.281-8.405,7.503h-36.36l-21.621-21.621H273.282l-20.9,20.9H82.854L54.866,97.47
		H16.869c-0.478-4.222-4.056-7.503-8.405-7.503C3.79,89.967,0,93.756,0,98.431S3.79,106.895,8.464,106.895z"/>
	<path id="XMLID_364_" fill="#231F20" d="M8.464,159.625c4.013,0,7.365-2.795,8.236-6.542h821.457
		c0.871,3.748,4.224,6.542,8.236,6.542c4.674,0,8.464-3.79,8.464-8.465c0-4.674-3.79-8.464-8.464-8.464
		c-4.013,0-7.365,2.795-8.236,6.542H16.7c-0.871-3.747-4.224-6.542-8.236-6.542c-4.674,0-8.464,3.79-8.464,8.464
		C0,155.836,3.79,159.625,8.464,159.625z"/>
	<path id="XMLID_365_" fill="#231F20" d="M8.464,215.721c4.35,0,7.928-3.282,8.406-7.503h37.996l27.987-27.987h169.528l20.9,20.9
		h465.404l21.621-21.621h36.36c0.478,4.222,4.057,7.504,8.405,7.504c4.675,0,8.465-3.79,8.465-8.464c0-4.675-3.79-8.464-8.465-8.464
		c-4.349,0-7.928,3.281-8.405,7.502h-37.155l-21.621,21.621H274.078l-20.9-20.9H82.058L54.07,206.296H16.869
		c-0.478-4.222-4.056-7.503-8.405-7.503c-4.674,0-8.464,3.789-8.464,8.464C0,211.931,3.79,215.721,8.464,215.721z"/>
	<path id="XMLID_366_" fill="#231F20" d="M8.464,247.912c4.482,0,8.141-3.486,8.436-7.894h56.314l31.74-31.741H208.84l25.044,25.044
		h157.593l28.828,28.829h116.106l25.504-25.504c1.373,0.963,3.043,1.533,4.848,1.533c4.675,0,8.465-3.79,8.465-8.465
		c0-4.674-3.79-8.463-8.465-8.463c-4.674,0-8.463,3.789-8.463,8.463c0,2.176,0.828,4.153,2.176,5.652l-24.859,24.861H421.101
		l-28.828-28.829H234.68l-25.044-25.044H104.159l-31.741,31.741H16.81c-0.648-4.031-4.132-7.113-8.346-7.113
		c-4.674,0-8.464,3.79-8.464,8.464C0,244.122,3.79,247.912,8.464,247.912z"/>
	<path id="XMLID_367_" fill="#231F20" d="M205.454,267.139c-4.674,0-8.464,3.79-8.464,8.464c0,1.991,0.692,3.817,1.843,5.263
		l-15.397,15.397H16.869c-0.478-4.222-4.056-7.503-8.405-7.503C3.79,288.76,0,292.549,0,297.224s3.79,8.464,8.464,8.464
		c4.35,0,7.928-3.281,8.406-7.503h167.361l15.96-15.96c1.445,1.15,3.272,1.842,5.263,1.842c4.675,0,8.464-3.789,8.464-8.464
		C213.918,270.929,210.129,267.139,205.454,267.139z"/>
	<path id="XMLID_368_" fill="#231F20" d="M622.497,242.831c-4.349,0-7.928,3.281-8.405,7.503h-38.923
		c-0.478-4.223-4.057-7.504-8.406-7.504c-4.674,0-8.463,3.79-8.463,8.465c0,4.674,3.789,8.463,8.463,8.463
		c4.35,0,7.929-3.281,8.406-7.502h38.923c0.478,4.221,4.056,7.502,8.405,7.502c4.675,0,8.464-3.789,8.464-8.463
		C630.961,246.62,627.172,242.831,622.497,242.831z"/>
</g>
</svg>
