<?xml version="1.0" encoding="utf-8"?>
<!-- Generator: Adobe Illustrator 16.0.3, SVG Export Plug-In . SVG Version: 6.00 Build 0)  -->
<!DOCTYPE svg PUBLIC "-//W3C//DTD SVG 1.1//EN" "http://www.w3.org/Graphics/SVG/1.1/DTD/svg11.dtd">
<svg version="1.1" id="Layer_2" xmlns="http://www.w3.org/2000/svg" xmlns:xlink="http://www.w3.org/1999/xlink" x="0px" y="0px"
	 width="854.857px" height="305.688px" viewBox="0 0 854.857 305.688" enable-background="new 0 0 854.857 305.688"
	 xml:space="preserve">
<g id="XMLID_353_">
	<path id="XMLID_354_" fill="#231F20" d="M373.009,217.437c0.781,3.867,4.198,6.779,8.295,6.779c4.674,0,8.464-3.789,8.464-8.464
		s-3.79-8.464-8.464-8.464c-4.594,0-8.326,3.663-8.452,8.227H248.749l-26.396,26.396h-71.214l-35.614-35.614H38.001
		c-0.505-4.192-4.068-7.442-8.396-7.442c-4.675,0-8.464,3.789-8.464,8.464c0,4.674,3.789,8.464,8.464,8.464
		c4.37,0,7.965-3.313,8.415-7.563h76.71l35.615,35.614h72.805l26.396-26.396H373.009z"/>
	<path id="XMLID_355_" fill="#231F20" d="M728.442,236.712c0.478,4.221,4.057,7.503,8.405,7.503c4.675,0,8.464-3.79,8.464-8.464
		c0-4.675-3.789-8.464-8.464-8.464c-4.349,0-7.928,3.281-8.405,7.503h-75.139l-24.478,24.477H519.28l-15.375,15.375h-47.411
		c-0.478-4.221-4.057-7.503-8.405-7.503c-4.675,0-8.464,3.79-8.464,8.464c0,4.675,3.789,8.464,8.464,8.464
		c4.349,0,7.928-3.281,8.405-7.503h48.207l15.375-15.375h109.545l24.478-24.477H728.442z"/>
	<path id="XMLID_356_" fill="#231F20" d="M44.979,89.087c4.675,0,8.464-3.79,8.464-8.464c0-1.991-0.692-3.817-1.843-5.263
		l20.007-20.007h51.45c0.478,4.222,4.057,7.503,8.406,7.503c4.674,0,8.464-3.79,8.464-8.464s-3.79-8.464-8.464-8.464
		c-4.35,0-7.928,3.282-8.406,7.503H70.812l-20.569,20.57c-1.445-1.15-3.272-1.842-5.263-1.842c-4.674,0-8.464,3.789-8.464,8.464
		C36.515,85.298,40.305,89.087,44.979,89.087z"/>
	<path id="XMLID_357_" fill="#231F20" d="M28.052,106.834c4.328,0,7.891-3.251,8.396-7.443h79.077l35.614-35.614h71.214
		l26.396,26.396h124.169c0.534,4.161,4.081,7.378,8.387,7.378c4.674,0,8.464-3.79,8.464-8.464s-3.79-8.464-8.464-8.464
		c-4.392,0-8.001,3.346-8.422,7.627H249.544l-26.396-26.396h-72.805L114.729,97.47H36.466c-0.45-4.25-4.045-7.563-8.415-7.563
		c-4.675,0-8.464,3.79-8.464,8.464S23.377,106.834,28.052,106.834z"/>
	<path id="XMLID_358_" fill="#231F20" d="M131.463,242.83c-4.349,0-7.928,3.282-8.406,7.503h-51.45l-20.007-20.006
		c1.15-1.445,1.843-3.272,1.843-5.263c0-4.675-3.79-8.464-8.464-8.464c-4.674,0-8.464,3.789-8.464,8.464
		c0,4.674,3.79,8.463,8.464,8.463c1.991,0,3.818-0.691,5.263-1.842l20.569,20.569h52.246c0.478,4.222,4.057,7.503,8.406,7.503
		c4.674,0,8.464-3.789,8.464-8.464C139.927,246.62,136.137,242.83,131.463,242.83z"/>
	<path id="XMLID_359_" fill="#231F20" d="M289.055,242.83c-4.349,0-7.928,3.282-8.405,7.503h-37.001
		c-0.478-4.221-4.057-7.503-8.405-7.503c-4.675,0-8.464,3.79-8.464,8.464c0,4.675,3.789,8.464,8.464,8.464
		c4.349,0,7.928-3.281,8.405-7.503h37.001c0.478,4.222,4.057,7.503,8.405,7.503c4.675,0,8.464-3.789,8.464-8.464
		C297.519,246.62,293.729,242.83,289.055,242.83z"/>
	<path id="XMLID_360_" fill="#231F20" d="M448.089,38.548c4.349,0,7.928-3.281,8.405-7.502h47.411L519.28,46.42h109.546
		l24.478,24.478h75.139c0.478,4.221,4.057,7.503,8.405,7.503c4.675,0,8.464-3.79,8.464-8.464c0-4.675-3.789-8.464-8.464-8.464
		c-4.35,0-7.928,3.281-8.405,7.503h-74.344l-24.478-24.478H520.076l-15.375-15.375h-48.207c-0.478-4.222-4.057-7.503-8.405-7.503
		c-4.675,0-8.464,3.79-8.464,8.464S443.414,38.548,448.089,38.548z"/>
	<path id="XMLID_361_" fill="#231F20" d="M846.394,230.65c-4.33,0-7.894,3.252-8.397,7.446h-55.557l-31.741-31.741H645.222
		L620.178,231.4H462.585l-28.828,28.828H319.242l-24.86-24.861c1.349-1.499,2.177-3.477,2.177-5.652c0-4.674-3.79-8.464-8.464-8.464
		s-8.464,3.79-8.464,8.464c0,4.675,3.79,8.465,8.464,8.465c1.805,0,3.475-0.57,4.849-1.533l25.503,25.503h116.107l28.828-28.827
		h157.593l25.044-25.045h103.886l31.74,31.741h56.336c0.451,4.249,4.045,7.56,8.414,7.56c4.674,0,8.464-3.79,8.464-8.464
		C854.857,234.439,851.067,230.65,846.394,230.65z"/>
	<path id="XMLID_362_" fill="#231F20" d="M846.394,288.76c-4.35,0-7.928,3.281-8.405,7.503H671.422l-15.397-15.397
		c1.15-1.445,1.843-3.271,1.843-5.263c0-4.674-3.79-8.464-8.464-8.464c-4.675,0-8.464,3.79-8.464,8.464
		c0,4.675,3.789,8.464,8.464,8.464c1.99,0,3.817-0.691,5.263-1.842l15.96,15.96h167.362c0.478,4.222,4.056,7.503,8.405,7.503
		c4.674,0,8.464-3.789,8.464-8.464S851.067,288.76,846.394,288.76z"/>
	<path id="XMLID_363_" fill="#231F20" d="M846.394,198.793c-4.35,0-7.928,3.281-8.405,7.503h-37.201L772.8,178.309H601.68
		l-20.9,20.9H116.966l-21.621-21.621H58.189c-0.478-4.221-4.057-7.503-8.405-7.503c-4.675,0-8.464,3.79-8.464,8.464
		c0,4.675,3.79,8.464,8.464,8.464c4.349,0,7.928-3.281,8.405-7.503h36.36l21.621,21.621h465.405l20.9-20.9h169.528l27.987,27.987
		h37.997c0.478,4.222,4.056,7.503,8.405,7.503c4.674,0,8.464-3.789,8.464-8.464S851.067,198.793,846.394,198.793z"/>
	<path id="XMLID_364_" fill="#231F20" d="M846.394,146.062c-4.013,0-7.365,2.795-8.236,6.542H16.7
		c-0.872-3.747-4.224-6.542-8.236-6.542c-4.674,0-8.464,3.79-8.464,8.464c0,4.674,3.79,8.464,8.464,8.464
		c4.013,0,7.365-2.795,8.236-6.542h821.457c0.871,3.747,4.224,6.542,8.236,6.542c4.674,0,8.464-3.79,8.464-8.464
		C854.857,149.852,851.067,146.062,846.394,146.062z"/>
	<path id="XMLID_365_" fill="#231F20" d="M846.394,89.967c-4.35,0-7.928,3.282-8.406,7.503h-37.996l-27.987,27.987H602.476
		l-20.9-20.9H116.17L94.55,126.178h-36.36c-0.478-4.222-4.057-7.503-8.405-7.503c-4.675,0-8.464,3.79-8.464,8.464
		c0,4.675,3.79,8.464,8.464,8.464c4.349,0,7.928-3.281,8.405-7.502h37.156l21.621-21.621h463.813l20.9,20.9H772.8l27.987-27.987
		h37.201c0.478,4.222,4.056,7.503,8.405,7.503c4.674,0,8.464-3.79,8.464-8.464S851.067,89.967,846.394,89.967z"/>
	<path id="XMLID_366_" fill="#231F20" d="M846.394,57.775c-4.482,0-8.141,3.486-8.436,7.894h-56.314l-31.74,31.741H646.018
		l-25.044-25.044H463.381l-28.828-28.828H318.446l-25.503,25.503c-1.374-0.963-3.043-1.533-4.849-1.533
		c-4.674,0-8.464,3.79-8.464,8.464s3.79,8.464,8.464,8.464s8.464-3.79,8.464-8.464c0-2.175-0.828-4.153-2.177-5.652l24.86-24.86
		h114.515l28.828,28.828h157.593l25.044,25.044h105.477l31.741-31.741h55.608c0.648,4.031,4.132,7.113,8.346,7.113
		c4.674,0,8.464-3.79,8.464-8.464C854.857,61.565,851.067,57.775,846.394,57.775z"/>
	<path id="XMLID_367_" fill="#231F20" d="M649.403,38.548c4.674,0,8.464-3.79,8.464-8.464c0-1.991-0.692-3.817-1.843-5.263
		l15.397-15.397h166.566c0.478,4.221,4.056,7.503,8.405,7.503c4.674,0,8.464-3.79,8.464-8.464c0-4.675-3.79-8.464-8.464-8.464
		c-4.35,0-7.928,3.281-8.406,7.503H670.626l-15.96,15.96c-1.445-1.15-3.272-1.842-5.263-1.842c-4.675,0-8.464,3.79-8.464,8.464
		S644.729,38.548,649.403,38.548z"/>
	<path id="XMLID_368_" fill="#231F20" d="M232.36,62.857c4.349,0,7.928-3.281,8.405-7.503h38.923
		c0.478,4.222,4.057,7.503,8.406,7.503c4.674,0,8.464-3.79,8.464-8.464s-3.79-8.464-8.464-8.464c-4.349,0-7.928,3.282-8.406,7.503
		h-38.923c-0.478-4.221-4.056-7.503-8.405-7.503c-4.675,0-8.464,3.79-8.464,8.464S227.686,62.857,232.36,62.857z"/>
</g>
</svg>
