<?xml version="1.0" encoding="utf-8"?>
<!-- Generator: Adobe Illustrator 16.0.3, SVG Export Plug-In . SVG Version: 6.00 Build 0)  -->
<!DOCTYPE svg PUBLIC "-//W3C//DTD SVG 1.1//EN" "http://www.w3.org/Graphics/SVG/1.1/DTD/svg11.dtd">
<svg version="1.1" id="Capa_1" xmlns="http://www.w3.org/2000/svg" xmlns:xlink="http://www.w3.org/1999/xlink" x="0px" y="0px"
	 width="101.689px" height="139.729px" viewBox="23.833 185.605 101.689 139.729"
	 enable-background="new 23.833 185.605 101.689 139.729" xml:space="preserve">
<path fill="#FFA000" d="M23.888,298.344l17.199-110.051c0.21-1.35,1.26-2.414,2.606-2.643c1.347-0.229,2.688,0.429,3.332,1.634
	l17.787,33.174l7.089-13.499c0.55-1.043,1.632-1.697,2.812-1.697c1.179,0,2.262,0.654,2.811,1.697l47.999,91.384H23.888
	L23.888,298.344z"/>
<path fill="#F57C00" d="M83.305,255.475l-18.501-35.032l-40.915,77.901L83.305,255.475z"/>
<path fill="#FFCA28" d="M125.523,298.344L112.35,216.83c-0.198-1.171-1.034-2.132-2.165-2.495c-1.132-0.362-2.37-0.061-3.21,0.779
	l-83.086,83.229l45.974,25.782c2.887,1.611,6.402,1.611,9.29,0L125.523,298.344L125.523,298.344z"/>
<path fill="#FFFFFF" fill-opacity="0.2" d="M112.35,216.83c-0.198-1.171-1.034-2.132-2.165-2.495
	c-1.132-0.362-2.37-0.061-3.21,0.779l-16.491,16.533l-12.967-24.687c-0.55-1.043-1.632-1.697-2.812-1.697
	c-1.179,0-2.262,0.654-2.811,1.697l-7.09,13.499l-17.787-33.174c-0.645-1.205-1.988-1.862-3.337-1.631
	c-1.348,0.23-2.395,1.297-2.602,2.648L23.888,298.344h-0.055l0.055,0.064l0.453,0.222l82.609-82.705
	c0.84-0.844,2.081-1.147,3.216-0.786c1.134,0.362,1.971,1.327,2.168,2.501l13.062,80.784l0.127-0.08L112.35,216.83L112.35,216.83z
	 M24.039,298.193l17.048-109.114c0.207-1.351,1.256-2.417,2.604-2.648c1.347-0.23,2.69,0.426,3.337,1.631l17.785,33.174
	l7.089-13.499c0.55-1.044,1.632-1.697,2.812-1.697c1.179,0,2.262,0.653,2.811,1.697L90.228,231.9L24.039,298.193L24.039,298.193z"/>
<path opacity="0.2" fill="#A52714" enable-background="new    " d="M79.153,323.348c-2.888,1.611-6.403,1.611-9.29,0l-45.863-25.71
	l-0.111,0.706l45.975,25.774c2.887,1.612,6.402,1.612,9.29,0l46.37-25.774l-0.119-0.73L79.153,323.348L79.153,323.348z"/>
<g>
	
		<linearGradient id="b_1_" gradientUnits="userSpaceOnUse" x1="0.9304" y1="499.1094" x2="1.9735" y2="498.3506" gradientTransform="matrix(101.2793 0 0 -139.6587 -73.6816 69914.375)">
		<stop  offset="0" style="stop-color:#FFFFFF;stop-opacity:0.1"/>
		<stop  offset="0.14" style="stop-color:#FFFFFF;stop-opacity:0.08"/>
		<stop  offset="0.61" style="stop-color:#FFFFFF;stop-opacity:0.02"/>
		<stop  offset="1" style="stop-color:#FFFFFF;stop-opacity:0"/>
	</linearGradient>
	<path id="b" fill="url(#b_1_)" d="M112.219,216.847c-0.199-1.17-1.031-2.132-2.158-2.493c-1.128-0.36-2.361-0.061-3.199,0.778
		l-16.434,16.524l-12.921-24.675c-0.548-1.043-1.626-1.697-2.802-1.697c-1.175,0-2.253,0.653-2.801,1.697l-7.065,13.492
		l-17.724-33.16c-0.644-1.204-1.982-1.861-3.324-1.631c-1.343,0.231-2.388,1.296-2.595,2.647L24.066,298.325l45.813,25.763
		c2.877,1.611,6.381,1.611,9.258,0l46.208-25.763L112.219,216.847L112.219,216.847z"/>
</g>
</svg>
