<?xml version="1.0" encoding="utf-8"?>
<!-- Generator: Adobe Illustrator 16.0.3, SVG Export Plug-In . SVG Version: 6.00 Build 0)  -->
<!DOCTYPE svg PUBLIC "-//W3C//DTD SVG 1.1//EN" "http://www.w3.org/Graphics/SVG/1.1/DTD/svg11.dtd">
<svg version="1.1" id="Capa_1" xmlns="http://www.w3.org/2000/svg" xmlns:xlink="http://www.w3.org/1999/xlink" x="0px" y="0px"
	 width="1771px" height="2008.507px" viewBox="221.807 580.844 1771 2008.507"
	 enable-background="new 221.807 580.844 1771 2008.507" xml:space="preserve">
<path fill="#E44D26" d="M382.976,2388.572L221.807,580.844h1771l-161.346,1807.442l-725.241,201.064L382.976,2388.572z"/>
<path fill="#F16529" d="M1107.307,2435.669l586.023-162.478l137.889-1544.533h-723.912V2435.669z"/>
<path fill="#EBEBEB" d="M1107.307,1399.118H813.933l-20.267-227.034h313.641V950.371H551.358l5.313,59.481l54.49,610.971h496.146
	V1399.118z M1107.307,1974.919l-0.975,0.266l-246.917-66.678l-15.786-176.818H621.071l31.065,348.118l454.156,126.075l1.015-0.286
	V1974.919z"/>
<path fill="#FFFFFF" d="M1106.542,1399.118v221.705h273.016l-25.74,287.547l-247.275,66.734v230.66l454.519-125.958l3.325-37.469
	l52.107-583.682l5.409-59.538h-59.738H1106.542z M1106.542,950.371v221.713h535.538l4.439-49.837l10.104-112.395l5.305-59.481
	H1106.542z"/>
</svg>
